<?xml version="1.0" encoding="UTF-8" standalone="no"?>
<!-- Created with Inkscape (http://www.inkscape.org/) -->

<svg
   xmlns:dc="http://purl.org/dc/elements/1.1/"
   xmlns:cc="http://creativecommons.org/ns#"
   xmlns:rdf="http://www.w3.org/1999/02/22-rdf-syntax-ns#"
   xmlns:svg="http://www.w3.org/2000/svg"
   xmlns="http://www.w3.org/2000/svg"
   xmlns:sodipodi="http://sodipodi.sourceforge.net/DTD/sodipodi-0.dtd"
   xmlns:inkscape="http://www.inkscape.org/namespaces/inkscape"
   version="1.1"
   id="svg4632"
   xml:space="preserve"
   width="864"
   height="1056"
   viewBox="0 0 864 1056"
   sodipodi:docname="flex-box.svg"
   inkscape:version="0.92.1 r15371"><metadata
     id="metadata4638"><rdf:RDF><cc:Work
         rdf:about=""><dc:format>image/svg+xml</dc:format><dc:type
           rdf:resource="http://purl.org/dc/dcmitype/StillImage" /></cc:Work></rdf:RDF></metadata><defs
     id="defs4636" /><sodipodi:namedview
     pagecolor="#ffffff"
     bordercolor="#666666"
     borderopacity="1"
     objecttolerance="10"
     gridtolerance="10"
     guidetolerance="10"
     inkscape:pageopacity="0"
     inkscape:pageshadow="2"
     inkscape:window-width="1920"
     inkscape:window-height="1138"
     id="namedview4634"
     showgrid="false"
     inkscape:zoom="1.2977016"
     inkscape:cx="365.5039"
     inkscape:cy="468.78839"
     inkscape:window-x="-8"
     inkscape:window-y="-8"
     inkscape:window-maximized="1"
     inkscape:current-layer="g4640" /><g
     id="g4640"
     inkscape:groupmode="layer"
     inkscape:label="flex-box"
     transform="matrix(1.3333333,0,0,-1.3333333,0,1056)"><g
       id="g4642"
       transform="translate(24.9,490.5)"
       style="stroke-width:0.06;stroke-miterlimit:4;stroke-dasharray:none;fill:#000000;fill-opacity:1;stroke:#1bff00;stroke-opacity:1"><path
         d="M 0,0 H 8.5 M 241,0 h 8.5"
         style="fill:#000000;stroke:#1bff00;stroke-width:0.06;stroke-linecap:round;stroke-linejoin:round;stroke-miterlimit:4;stroke-dasharray:none;stroke-opacity:1;fill-opacity:1"
         id="path4644"
         inkscape:connector-curvature="0" /></g><g
       id="g4646"
       transform="translate(24.9,493.4)"
       style="stroke-width:0.06;stroke-miterlimit:4;stroke-dasharray:none;stroke:#1bff00;stroke-opacity:1"><path
         d="m 0,0 h 30.5 m 219,0 H 219 M 36.2,0 h 55.2 m 121.9,0 h -55.2 m -61,0 h 55.3 M 5.7,5.7 H 61 m 5.6,0 h 55.3 m 61,0 h -55.3 m 116.2,0 H 188.5 M 0,11.3 h 30.5 m 5.7,0 h 55.2 m 5.7,0 h 55.3 m 60.9,0 h -55.2 m 91.4,0 H 219 m 24.8,5.7 h -55.3 m -5.6,0 h -55.3 m -61,0 h 55.3 M 5.7,17 H 61 M 0,22.7 h 30.5 m 5.7,0 h 55.2 m 5.7,0 h 55.3 m 60.9,0 h -55.2 m 91.4,0 H 219 m 24.8,5.6 h -55.3 m -5.6,0 h -55.3 m -61,0 h 55.3 M 5.7,28.3 H 61 M 0,34 h 30.5 m 5.7,0 h 55.2 m 5.7,0 h 55.3 m 60.9,0 h -55.2 m 91.4,0 H 219 m 24.8,5.7 h -55.3 m -5.6,0 h -55.3 m -61,0 h 55.3 M 5.7,39.7 H 61 M 0,45.3 h 30.5 m 5.7,0 h 55.2 m 5.7,0 h 55.3 m 60.9,0 h -55.2 m 91.4,0 H 219 m 24.8,5.7 h -55.3 m -5.6,0 h -55.3 m -61,0 h 55.3 M 5.7,51 H 61 M 0,56.7 h 30.5 m 5.7,0 h 55.2 m 5.7,0 h 55.3 m 60.9,0 h -55.2 m 91.4,0 H 219 m 24.8,5.6 h -55.3 m -5.6,0 h -55.3 m -61,0 h 55.3 M 5.7,62.3 H 61 M 0,68 h 30.5 m 5.7,0 h 55.2 m 5.7,0 h 55.3 m 60.9,0 h -55.2 m 91.4,0 H 219 m 24.8,5.7 h -55.3 m -5.6,0 h -55.3 m -61,0 h 55.3 M 5.7,73.7 H 61 M 0,79.4 h 30.5 m 5.7,0 h 55.2 m 5.7,0 h 55.3 m 60.9,0 h -55.2 m 91.4,0 H 219 m 24.8,5.6 h -55.3 m -5.6,0 h -55.3 m -61,0 h 55.3 M 5.7,85 H 61 M 0,90.7 h 30.5 m 5.7,0 h 55.2 m 5.7,0 h 55.3 m 60.9,0 h -55.2 m 91.4,0 H 219 m 24.8,5.7 h -55.3 m -5.6,0 h -55.3 m -61,0 h 55.3 M 5.7,96.4 H 61 M 0,102 h 30.5 m 5.7,0 h 55.2 m 5.7,0 h 55.3 m 60.9,0 h -55.2 m 91.4,0 H 219 m 24.8,5.7 h -55.3 m -5.6,0 h -55.3 m -61,0 h 55.3 m -116.2,0 H 61 m -61,5.7 h 30.5 m 5.7,0 h 55.2 m 5.7,0 h 55.3 m 60.9,0 h -55.2 m 91.4,0 H 219 m 24.8,5.6 h -55.3 m -5.6,0 h -55.3 m -61,0 h 55.3 M 5.7,119 H 61 m -61,5.7 h 30.5 m 5.7,0 h 55.2 m 5.7,0 h 55.3 m 60.9,0 h -55.2 m 91.4,0 H 219 m 24.8,5.7 h -55.3 m -5.6,0 h -55.3 m -61,0 h 55.3 m -116.2,0 H 61 M 0,136 h 30.5 m 5.7,0 h 55.2 m 5.7,0 h 55.3 m 60.9,0 h -55.2 m 91.4,0 H 219 m 24.8,5.7 h -55.3 m -5.6,0 h -55.3 m -61,0 h 55.3 m -116.2,0 H 61 m -61,5.7 h 30.5 m 5.7,0 h 55.2 m 5.7,0 h 55.3 m 60.9,0 h -55.2 m 91.4,0 H 219 m 24.8,5.7 h -55.3 m -5.6,0 h -55.3 m -61,0 h 55.3 m -116.2,0 H 61 m -61,5.6 h 30.5 m 5.7,0 h 55.2 m 5.7,0 h 55.3 m 60.9,0 h -55.2 m 91.4,0 H 219 m 24.8,5.7 h -55.3 m -5.6,0 h -55.3 m -61,0 h 55.3 m -116.2,0 H 61"
         style="fill:none;stroke:#1bff00;stroke-width:0.06;stroke-linecap:round;stroke-linejoin:round;stroke-miterlimit:4;stroke-dasharray:none;stroke-opacity:1"
         id="path4648"
         inkscape:connector-curvature="0" /></g><g
       id="g4650"
       transform="translate(241.8,295)"
       style="stroke-width:0.06;stroke-miterlimit:4;stroke-dasharray:none;stroke:#1bff00;stroke-opacity:1"><path
         d="M 0,0 H 14.2 M 0,0 v 8.5 m 0,0 h -14.2 m 0,-8.5 V 8.5 M -28.4,0 h 14.2 m -14.2,0 v 8.5 m 0,0 h -14.1 m 0,-8.5 V 8.5 M -56.7,0 h 14.2 m -14.2,0 v 8.5 m 0,0 h -14.2 m 0,-8.5 V 8.5 M -85.1,0 h 14.2 m -14.2,0 v 8.5 m 0,0 h -14.1 m 0,-8.5 v 8.5 m 0,-8.5 h -14.2 m 0,0 v 8.5 m -14.2,0 h 14.2 M -127.6,0 v 8.5 m 0,-8.5 h -14.1 m 0,0 v 8.5 m -14.2,0 h 14.2 M -155.9,0 v 8.5 m 0,-8.5 h -14.2 m 0,0 v 8.5 m -14.2,0 h 14.2 M -184.3,0 v 8.5 m 0,-8.5 h -14.1 m 0,0 v 8.5 m -10,0 h 10 m -10,11.3 V 8.5 m -8.5,11.3 h 8.5 m -8.5,14.2 h 8.5 m 0,15.1 V 34 m -8.5,15.1 h 8.5 m -8.5,14.2 V 49.1 m 8.5,29.3 V 63.3 m -8.5,15.1 h 8.5 m -8.5,14.2 V 78.4 m 0,14.2 h 8.5 m 0,15.1 V 92.6 m -8.5,15.1 h 8.5 m -8.5,14.1 v -14.1 m 0,14.1 h 8.5 m 0,15.2 v -15.2 m -8.5,15.2 h 8.5 m -8.5,14.1 V 137 m 0,14.1 h 8.5 m 0,15.2 v -15.2 m -8.5,15.2 h 8.5 m -8.5,14.1 v -14.1 m 0,14.1 h 8.5 m 0,15.1 v -15.1 m 232.5,15.1 v -15.1 m 8.5,0 h -8.5 m 8.5,0 v -14.1 m 0,0 h -8.5 m 0,0 v -15.2 m 8.5,0 h -8.5 m 8.5,0 V 137 m 0,0 h -8.5 m 0,0 v -15.2 m 8.5,0 h -8.5 m 8.5,0 v -14.1 m 0,0 h -8.5 m 0,0 V 92.6 m 8.5,0 h -8.5 m 8.5,0 V 78.4 m 0,0 h -8.5 m 0,0 V 63.3 m 8.5,-14.2 h -8.5 m 0,0 V 34 m 8.5,0 h -8.5 m 8.5,0 V 19.8 m 0,0 h -8.5 m 0,0 V 8.5 m 0,0 H 14.2 M 14.2,0 V 8.5 M -216.9,34 V 19.8 M 32.6,63.3 V 49.1 m 0,14.2 h -8.5 m -241,0 h 8.5 m 241,398.4 -0.2,1.7 -0.5,1.6 -0.8,1.5 -1,1.2 -1.3,1.1 -1.5,0.8 -1.6,0.5 -1.6,0.1 m 8.5,-107.7 v 99.2 m -241,8.5 -1.6,-0.1 -1.6,-0.5 -1.5,-0.8 -1.3,-1.1 -1,-1.2 -0.8,-1.5 -0.5,-1.6 -0.2,-1.7 m 8.5,8.5 H 24.1 m -130.4,-11.3 h -28.4 m 0,0 v -8.5 m 0,0 h 85.1 m 0,0 v 8.5 m 0,0 H -78 m 0,0 v 2.8 m 0,0 h -28.3 m 0,0 v -2.8 m -110.6,-96.4 v 99.2 M 32.6,195.5 v 167 m -249.5,0 v -167"
         style="fill:none;stroke:#1bff00;stroke-width:0.06;stroke-linecap:round;stroke-linejoin:round;stroke-miterlimit:4;stroke-dasharray:none;stroke-opacity:1"
         id="path4652"
         inkscape:connector-curvature="0" /></g><g
       id="g4654"
       transform="translate(142.2,82.2)"
       style="stroke-width:0.06;stroke-miterlimit:4;stroke-dasharray:none;stroke:#1bff00;stroke-opacity:1"><path
         d="m 0,0 v 8.5 m 0,0 h -14.1 m 0,0 V 0 m -14.2,0 h 14.2 m -14.2,0 v 8.5 m 0,0 h -14.2 m 0,0 V 0 m -14.2,0 h 14.2 m -14.2,0 v 8.5 m 0,0 h -14.1 m 0,0 V 0 M -85,0 h 14.2 M -85,0 v 8.5 m 0,0 h -14.2 m 0,0 V 0 m -9.9,0 h 9.9 m -18.4,34 h 8.5 m 0,0 v 14.2 m -8.5,14.1 V 48.2 m 0,14.1 h 8.5 m 0,0 v 14.2 m -8.5,0 h 8.5 m -8.5,14.2 V 76.5 m 0,14.2 h 8.5 m 0,0 V 119 m -8.5,0 h 8.5 m -8.5,14.2 V 119 m 0,14.2 h 8.5 m 0,0 v 14.2 m -8.5,0 h 8.5 m -8.5,14.1 v -14.1 m 0,14.1 h 8.5 m 0,0 v 14.2 m -8.5,0 h 8.5 m -8.5,14.2 v -14.2 m 0,14.2 h 8.5 m 0,0 v 19.8 m 9.9,0 v -8.5 m 0,0 H -85 m 0,0 v 8.5 m 14.2,0 H -85 m 14.2,0 v -8.5 m 0,0 h 14.1 m 0,0 v 8.5 m 14.2,0 h -14.2 m 14.2,0 v -8.5 m 0,0 h 14.2 m 0,0 v 8.5 m 14.2,0 h -14.2 m 14.2,0 v -8.5 m 0,0 H 0 m 0,0 v 8.5 m 0,0 h 14.2 m 0,-8.5 v 8.5 m 14.2,-8.5 H 14.2 m 14.2,8.5 v -8.5 m 0,8.5 h 14.2 m 0,-8.5 v 8.5 m 14.1,-8.5 H 42.6 m 14.1,8.5 v -8.5 m 0,8.5 h 14.2 m 0,-8.5 v 8.5 m 14.2,-8.5 H 70.9 m 14.2,8.5 v -8.5 m 0,8.5 h 14.1 m 0,-8.5 v 8.5 m 14.2,-8.5 H 99.2 m 14.2,8.5 v -8.5 m 18.4,-11.3 h -8.5 m 8.5,0 v -14.2 m 0,0 h -8.5 m 0,-14.2 v 14.2 m 8.5,-14.2 h -8.5 m 8.5,0 v -14.1 m 0,0 h -8.5 m 0,-14.2 v 14.2 m 8.5,-14.2 h -8.5 m 8.5,0 V 119 m 0,0 h -8.5 m 0,-28.3 V 119 m 8.5,-28.3 h -8.5 m 8.5,0 V 76.5 m 0,0 h -8.5 m 0,-14.2 v 14.2 m 8.5,-14.2 h -8.5 m 8.5,0 V 48.2 M 123.3,34 V 48.2 M 131.8,34 h -8.5 m 8.5,0 V 19.8 M 113.4,8.5 V 0 M 99.2,8.5 h 14.2 M 99.2,0 V 8.5 M 99.2,0 H 85.1 m 0,8.5 V 0 M 70.9,8.5 H 85.1 M 70.9,0 V 8.5 M 70.9,0 H 56.7 m 0,8.5 V 0 M 42.6,8.5 H 56.7 M 42.6,0 V 8.5 M 42.6,0 H 28.4 m 0,8.5 V 0 M 14.2,8.5 H 28.4 M 14.2,0 V 8.5 M 14.2,0 H 0 M -117.6,34 V 19.8 M 123.3,0 h -9.9 m 9.9,189.9 v 19.8 m 8.5,-189.9 h -8.5 m 0,-19.8 v 19.8 m -240.9,0 h 8.5 m 0,-19.8 v 19.8 m 240.9,28.4 h -8.5 M -99.2,209.7 h -9.9 m -8.5,-161.5 h 8.5 m 222.5,161.5 h 9.9"
         style="fill:none;stroke:#1bff00;stroke-width:0.06;stroke-linecap:round;stroke-linejoin:round;stroke-miterlimit:4;stroke-dasharray:none;stroke-opacity:1"
         id="path4656"
         inkscape:connector-curvature="0" /></g><g
       id="g4658"
       transform="translate(567.4,479.6)"
       style="stroke-width:0.06;stroke-miterlimit:4;stroke-dasharray:none;stroke:#1bff00;stroke-opacity:1"><path
         d="m 0,0 h 8.5 m 0,-14.2 V 0 m 0,-14.2 H 0 m 0,0 v -14.2 m 0,0 h 8.5 m 0,-14.2 v 14.2 m 0,-14.2 H 0 m 0,0 v -14.1 m 0,0 h 8.5 m 0,-28.4 v 28.4 m 0,-28.4 H 0 m 0,0 v -14.1 m 0,0 h 8.5 m 0,-14.2 v 14.2 m 0,-14.2 H 0 m 0,0 v -14.2 m 0,0 h 8.5 m 0,-14.2 v 14.2 m 0,-14.2 H 0 m 0,0 v -14.1 m 0,0 h 8.5 m 0,-19.9 v 19.9 m -19.9,-19.9 H 8.5 m -19.9,8.5 v -8.5 m -14.2,8.5 h 14.2 m -14.2,-8.5 v 8.5 m -15.1,-8.5 h 15.1 m -15.1,8.5 v -8.5 m -14.1,8.5 h 14.1 m -14.1,-8.5 v 8.5 m -15.2,-8.5 h 15.2 m -15.2,8.5 v -8.5 m -14.1,8.5 H -70 m -14.1,-8.5 v 8.5 m -15.2,-8.5 h 15.2 m -15.2,8.5 v -8.5 m -14.1,8.5 h 14.1 m -14.1,-8.5 v 8.5 m -15.1,-8.5 h 15.1 m -15.1,8.5 v -8.5 m -14.2,8.5 h 14.2 m -14.2,-8.5 v 8.5 m -15.1,-8.5 h 15.1 m -15.1,8.5 v -8.5 m -14.2,8.5 h 14.2 m -14.2,-8.5 v 8.5 m -15.1,-8.5 h 15.1 m -15.1,8.5 v -8.5 m -102.1,110.6 0.2,-5.2 0.4,-5.2 0.6,-5.1 0.9,-5.1 1.2,-5 1.4,-5 1.7,-4.9 1.9,-4.8 2.2,-4.7 2.3,-4.6 2.7,-4.4 2.8,-4.3 3.1,-4.2 3.2,-4 3.5,-3.8 3.7,-3.7 3.8,-3.5 4,-3.2 4.2,-3.1 4.3,-2.8 4.5,-2.7 4.5,-2.3 4.7,-2.2 4.8,-1.9 4.9,-1.7 5,-1.4 5,-1.2 5.1,-0.9 5.2,-0.7 5.1,-0.3 5.2,-0.2 M -289.2,34 v -99.2 m 8.5,99.2 h -8.5 m 8.5,-8.5 V 34 m 14.2,-8.5 h -14.2 m 14.2,8.5 v -8.5 m 14.2,8.5 h -14.2 m 14.2,-8.5 V 34 m 14.2,-8.5 h -14.2 m 14.2,8.5 V 25.5 M -224,34 h -14.1 M -224,25.5 V 34 m 14.2,-8.5 H -224 m 14.2,8.5 v -8.5 m 14.2,8.5 h -14.2 m 14.2,-8.5 V 34 m 14.1,-8.5 h -14.1 m 14.1,8.5 v -8.5 m 14.2,8.5 h -14.2 m 14.2,-8.5 V 34 m 14.2,-8.5 h -14.2 m 14.2,8.5 v -8.5 m 14.2,8.5 h -14.2 m 14.2,-8.5 V 34 m 14.1,-8.5 h -14.1 m 14.1,8.5 v -8.5 m 14.2,8.5 h -14.2 m 14.2,-8.5 V 34 m 14.2,-8.5 h -14.2 m 14.2,8.5 v -8.5 m 14.2,8.5 h -14.2 m 14.2,-8.5 V 34 m 14.1,-8.5 h -14.1 m 14.1,8.5 v -8.5 m 14.2,8.5 h -14.2 m 42.5,0 h -14.1 m 28.3,0 V 25.5 M 8.5,34 H -11.4 M 8.5,14.1 H 0 m 0,0 V 0 M -53.9,25.5 V 34 m 14.2,-8.5 h -14.2 m 14.2,8.5 v -8.5 m 14.1,0 V 34 m 14.2,-8.5 H -25.6 M 8.5,14.1 V 34"
         style="fill:none;stroke:#1bff00;stroke-width:0.06;stroke-linecap:round;stroke-linejoin:round;stroke-miterlimit:4;stroke-dasharray:none;stroke-opacity:1"
         id="path4660"
         inkscape:connector-curvature="0" /></g><g
       id="g4662"
       transform="translate(277.4,153.7)"
       style="stroke-width:0.06;stroke-miterlimit:4;stroke-dasharray:none;stroke:#1bff00;stroke-opacity:1"><path
         d="m 0,0 h 8.5 m 0,14.2 H 0 M 8.5,28.4 V 14.2 M 0,28.4 h 8.5 m 0,28.3 H 0 M 8.5,70.9 V 56.7 M 0,70.9 h 8.5 m 0,14.2 H 0 M 8.5,99.2 V 85.1 M 0,99.2 h 8.5 m 0,14.2 H 0 m 8.5,14.2 V 113.4 M 0,127.6 H 8.5 M 0,147.4 h 19.8 m 0,0 v -8.5 m 0,0 H 34 m 0,0 v 8.5 m 0,0 h 14.2 m 0,0 v -8.5 m 0,0 h 14.2 m 0,0 v 8.5 m 0,0 h 14.1 m 14.2,0 h 14.2 m 14.2,0 h 14.1 m 14.2,0 h 14.2 m 14.1,0 h 14.2 m 14.2,0 h 14.2 m 14.1,0 h 14.2 m 0,-8.5 h 14.2 m 0,8.5 H 275 m 0,0 v -8.5 m 14.1,8.5 h 8.5 m 0,0 V 48.2 m 0,0 -0.1,-5.2 -0.4,-5.1 -0.6,-5.1 -1,-5.1 -1.1,-5.1 -1.4,-4.9 -1.7,-4.9 -1.9,-4.8 -2.2,-4.7 -2.4,-4.6 -2.6,-4.5 -2.9,-4.3 -3,-4.2 -3.3,-4 -3.4,-3.8 -3.7,-3.7 -3.8,-3.4 -4,-3.3 -4.2,-3 -4.3,-2.9 -4.5,-2.6 -4.6,-2.4 -4.7,-2.2 -4.8,-1.9 -4.9,-1.7 -4.9,-1.4 -5.1,-1.1 -5.1,-1 -5.1,-0.6 -5.1,-0.4 -5.2,-0.1 m 0,0 v -8.5 m 0,0 h -15.1 m 0,0 v 8.5 m 0,0 h -14.2 m 0,0 v -8.5 m 0,0 h -15.1 m 0,0 v 8.5 m 0,0 H 137 m 0,0 v -8.5 m 0,0 h -15.1 m 0,0 v 8.5 m 0,0 h -14.2 m 0,0 v -8.5 m 0,0 H 92.6 m 0,0 v 8.5 m 0,0 H 78.4 m 0,0 v -8.5 m 0,0 H 63.3 m 0,0 v 8.5 m 0,0 H 49.1 m 0,0 v -8.5 m 0,0 H 34 m 0,0 v 8.5 m 0,0 H 19.8 m 0,0 v -8.5 m 0,0 H 0 m 8.5,19.8 H 0 m 8.5,14.2 V -42.5 M 0,-28.3 h 8.5 m 0,14.1 H 0 M 8.5,0 V -14.2 M 275,138.9 h 14.1 m 0,0 v 8.5 m -28.3,-8.5 v 8.5 M 0,-62.3 v 19.8 m 246.6,189.9 v -8.5 m -14.2,0 v 8.5 m -14.1,-8.5 h 14.1 m -14.1,8.5 v -8.5 m -14.2,0 v 8.5 m -14.2,-8.5 h 14.2 m -14.2,8.5 v -8.5 m -14.2,0 v 8.5 m -14.1,-8.5 h 14.1 m -14.1,8.5 v -8.5 m -14.2,0 v 8.5 m -14.2,-8.5 h 14.2 m -14.2,8.5 v -8.5 m -14.1,0 v 8.5 m -14.2,-8.5 h 14.2 m -14.2,8.5 v -8.5 m -14.2,0 v 8.5 m -14.2,-8.5 h 14.2 m -14.2,8.5 v -8.5 M 0,-28.3 v 14.1 M 0,0 v 14.2 m 0,14.2 v 28.3 m 0,14.2 v 14.2 m 0,14.1 v 14.2 m 0,14.2 v 19.8"
         style="fill:none;stroke:#1bff00;stroke-width:0.06;stroke-linecap:round;stroke-linejoin:round;stroke-miterlimit:4;stroke-dasharray:none;stroke-opacity:1"
         id="path4664"
         inkscape:connector-curvature="0" /></g><g
       id="g4666"
       transform="translate(276.6,549.1)"
       style="stroke-width:0.06;stroke-miterlimit:4;stroke-dasharray:none;stroke:#1bff00;stroke-opacity:1"><path
         d="M 0,0 V -14.2 M 8.5,28.4 V 42.5 M 0,56.7 h 8.5 m 0,0 V 70.9 M 0,70.9 H 8.5 M 0,99.2 h 8.5 m -8.5,0 v 14.2 m 0,0 h 8.5 m 0,14.2 V 113.4 M 0,127.6 H 8.5 M 0,141.7 h 8.5 m 0,14.2 V 141.7 M 0,155.9 h 8.5 m -8.5,0 v 14.2 m 0,0 h 8.5 m 0,14.2 V 170.1 M 0,184.3 H 8.5 M 0,198.4 h 8.5 m 0,10 h 11.3 m 0,8.5 v -8.5 M 34,216.9 H 19.8 m 14.2,0 v -8.5 m 0,0 h 14.1 m 0,8.5 v -8.5 m 14.2,8.5 H 48.1 m 14.2,0 v -8.5 m 0,0 h 14.2 m 0,8.5 v -8.5 m 14.2,8.5 H 76.5 m 14.2,0 v -8.5 m 0,0 h 14.1 m 0,8.5 v -8.5 m 14.2,8.5 h -14.2 m 14.2,0 v -8.5 m 0,0 h 14.2 m 0,8.5 v -8.5 m 14.2,8.5 h -14.2 m 14.2,0 v -8.5 m 0,0 h 14.1 m 0,8.5 v -8.5 m 14.2,8.5 h -14.2 m 14.2,0 v -8.5 m 0,0 h 14.2 m 0,8.5 v -8.5 m 14.2,8.5 h -14.2 m 14.2,0 v -8.5 m 0,0 h 14.1 m 0,8.5 v -8.5 m 14.2,8.5 h -14.2 m 14.2,0 v -8.5 m 0,0 h 14.2 m 0,8.5 v -8.5 m 14.1,8.5 h -14.1 m 14.1,0 v -8.5 m 0,0 h 14.2 m 0,8.5 v -8.5 m 14.2,8.5 h -14.2 m 14.2,0 v -8.5 m 0,0 h 8.5 m 9.9,-102.1 h -9.9 m 9.9,0 v 28.4 m 9.9,0 h -9.9 m 9.9,-85.1 v 85.1 m 0,-85.1 h -9.9 m 0,0 V 78 m 0,0 h -9.9 m 0,0 V -24.1 m -8.5,0 h 8.5 m -8.5,-8.5 v 8.5 m 0,-8.5 h -14.2 m 0,0 v 8.5 m -14.2,0 h 14.2 m -14.2,-8.5 v 8.5 m 0,-8.5 h -14.1 m 0,0 v 8.5 m -14.2,0 h 14.2 m -14.2,-8.5 v 8.5 m 0,-8.5 h -14.2 m 0,0 v 8.5 m -14.1,0 h 14.1 m -14.1,-8.5 v 8.5 m 0,-8.5 h -14.2 m 0,0 v 8.5 m -14.2,0 h 14.2 m -14.2,-8.5 v 8.5 m 0,-8.5 h -14.2 m 0,0 v 8.5 m -14.1,0 h 14.1 m -14.1,-8.5 v 8.5 m 0,-8.5 h -14.2 m 0,0 v 8.5 m -14.2,0 h 14.2 M 119,-32.6 v 8.5 m 0,-8.5 h -14.2 m 0,0 v 8.5 m -14.1,0 h 14.1 m -14.1,-8.5 v 8.5 m 0,-8.5 H 76.5 m 0,0 v 8.5 m -14.2,0 h 14.2 m -14.2,-8.5 v 8.5 m 0,-8.5 H 48.1 m 0,0 v 8.5 m -14.1,0 H 48.1 M 34,-32.6 v 8.5 m 0,-8.5 H 19.8 m 0,0 v 8.5 m -11.3,0 h 11.3 m -11.3,0 v 9.9 M 297.6,208.4 V 106.3 M 8.5,208.4 v -10 M 0,184.3 v 14.1 M 0,28.4 H 8.5 M 0,42.5 H 8.5 M 8.5,0 V 14.2 M 0,0 H 8.5 M 0,14.2 H 8.5 M 0,85.1 h 8.5 m 0,0 V 99.2 M 0,-14.2 H 8.5 M 0,28.4 V 14.2 M 0,56.7 V 42.5 M 0,85.1 V 70.9 m 0,56.7 v 14.1"
         style="fill:none;stroke:#1bff00;stroke-width:0.06;stroke-linecap:round;stroke-linejoin:round;stroke-miterlimit:4;stroke-dasharray:none;stroke-opacity:1"
         id="path4668"
         inkscape:connector-curvature="0" /></g><g
       transform="matrix(0,0.38703427,-0.38703427,0,590.11391,482.21669)"
       id="g6449"
       style="stroke:#ff0000;stroke-opacity:1;fill:#e90000;fill-opacity:1"><g
         transform="translate(314.2627,490.9546)"
         id="g4714"
         style="stroke:#ff0000;stroke-opacity:1;fill:#e90000;fill-opacity:1"><path
           inkscape:connector-curvature="0"
           id="path4716"
           style="fill:#e90000;fill-opacity:1;fill-rule:nonzero;stroke:#ff0000;stroke-opacity:1"
           d="m 0,0 c 0.156,-0.885 0.459,-4.084 -1.72,-10.136 -4.222,-11.725 -17.38,-17.542 -17.38,-17.542 0,0 2.233,11.934 8.753,19.218 0.185,0.206 0.372,0.406 0.562,0.605 C -7.407,-5.196 0.063,3.328 6.788,8.353 6.788,8.353 2.85,4.545 0,0 m 185.474,34.723 c 49.656,-13.715 64.245,14.007 65.257,16.081 l -0.026,0.011 c -17.267,-23.893 -66.717,-7.231 -74.071,5.517 -7.367,12.769 -39.289,12.769 -39.289,12.769 31.247,4.786 42.481,20.703 46.382,33.419 -1.685,0.526 -3.503,0.974 -5.416,1.347 -10.077,-14.097 -27.127,-16.038 -53.099,-11.893 -8.65,-6.59 -15.53,-14.656 -21.106,-21.201 -1.265,-1.485 -2.464,-2.893 -3.603,-4.19 C 98.921,64.781 97.574,63.177 96.386,61.76 90.891,55.212 87.865,51.605 78.428,49.097 67.985,46.322 59.952,46.148 59.616,46.142 c -1.558,-0.006 -2.986,0.868 -3.638,2.283 -0.653,1.415 -0.408,3.083 0.626,4.25 1.132,1.278 22.268,25.041 43.999,42.549 -31.969,-1.162 -45.008,-33.29 -45.008,-33.29 4.608,56.456 92.751,74.228 92.75,74.228 C 29.872,129.045 22.758,63.663 22.758,63.663 19.302,90.738 -0.285,99.956 -0.285,99.956 3.747,86.706 2.595,56.75 -3.166,38.891 -8.927,21.032 -47.524,-2.011 -47.524,-2.011 c 9.217,-19.588 -16.84,-54.493 -31.242,-60.83 -10.677,-4.698 -18.879,-5.996 -18.879,-5.996 10.371,-16.706 -10.199,-35.821 -10.199,-35.821 3.456,-19.284 -13.42,-44.256 -13.42,-44.256 0,0 42.518,35.32 51.358,39.741 8.841,4.42 36.834,6.383 37.816,-10.805 0,0 24.065,25.047 23.573,38.307 0,0 -4.42,6.384 -2.946,10.314 1.473,3.928 15.225,16.189 21.609,20.608 6.384,4.42 19.153,3.456 25.538,1.492 6.384,-1.965 8.348,10.313 8.839,13.751 0.492,3.438 0,11.787 7.859,11.296 7.857,-0.492 10.313,-3.438 14.242,-2.947 3.929,0.491 23.844,10.313 25.428,14.242 1.584,3.929 0.11,17.189 8.459,19.644 8.349,2.456 88.891,-0.981 69.738,-101.169 21.609,38.307 6.876,96.258 6.876,96.258 72.193,-20.135 41.744,-97.24 41.744,-97.24 5.402,9.822 20.136,56.478 3.93,92.546 -16.207,36.068 -67.775,39.564 -67.775,39.564 11.296,1.964 30.45,-1.965 30.45,-1.965" /></g><g
         transform="translate(354.4023,419.5259)"
         id="g4718"
         style="stroke:#ff0000;stroke-opacity:1;fill:#e90000;fill-opacity:1"><path
           inkscape:connector-curvature="0"
           id="path4720"
           style="fill:#e90000;fill-opacity:1;fill-rule:nonzero;stroke:#ff0000;stroke-opacity:1"
           d="M 0,0 C 28.443,-16.945 53.426,-6.706 53.426,-6.706 33.778,-29.424 15.353,-23.831 -0.363,-34.961 c -15.716,-11.133 -57.713,-60.792 -43.962,-78.8 13.751,-18.006 38.962,-9.894 38.962,-9.894 -31.432,-20.953 -59.916,1.639 -59.916,1.639 -4.91,-10.151 -9.741,-9.742 -9.741,-9.742 7.613,17.434 -26.274,30.695 -26.274,30.695 21.608,-2.947 31.439,8.034 31.439,8.034 -8.555,2.367 -10.812,8.172 -10.812,8.172 6.875,0 17.375,0.202 23.502,3.439 26.029,13.751 41.596,66.559 32.082,73.631 -17.901,13.308 -8.335,22.554 -1.986,26.339 7.152,4.265 20.717,1 20.717,1 0,0 -3.315,-13.793 6.352,-19.552" /></g><g
         transform="translate(407.9932,473.0649)"
         id="g4722"
         style="stroke:#ff0000;stroke-opacity:1;fill:#e90000;fill-opacity:1"><path
           inkscape:connector-curvature="0"
           id="path4724"
           style="fill:#e90000;fill-opacity:1;fill-rule:nonzero;stroke:#ff0000;stroke-opacity:1"
           d="m 0,0 c -13.534,-9.825 -24.427,-14.398 -27.834,-13.426 -4.591,1.311 -7.572,2.852 -10.548,3.378 -6.338,1.118 -7.847,-7.711 -8.16,-14.735 -0.313,-7.025 -8.125,-12.261 -8.125,-12.261 C -52.652,-36.617 -13.42,-41.756 0,0" /></g><g
         transform="translate(353.2515,431.2407)"
         id="g4726"
         style="stroke:#ff0000;stroke-opacity:1;fill:#e90000;fill-opacity:1"><path
           inkscape:connector-curvature="0"
           id="path4728"
           style="fill:#e90000;fill-opacity:1;fill-rule:nonzero;stroke:#ff0000;stroke-opacity:1"
           d="m 0,0 c 0,0 16.555,0 30.268,6.14 12.001,5.373 20.307,12.091 27.221,31.928 0,0 -3.756,-34.855 12.614,-26.343 0,0 1.446,-9.518 -14.13,-8.444 -4.675,0.322 -10.372,-4.66 -0.71,-8.01 9.65,-3.345 2.698,-8.903 -2.686,-10.417 -4.473,-1.258 -16.214,-4.401 -36.841,1.819 C -0.555,-8.414 -1.251,-2.661 0,0" /></g><g
         transform="translate(445.2539,442.8467)"
         id="g4730"
         style="stroke:#ff0000;stroke-opacity:1;fill:#e90000;fill-opacity:1"><path
           inkscape:connector-curvature="0"
           id="path4732"
           style="fill:#e90000;fill-opacity:1;fill-rule:nonzero;stroke:#ff0000;stroke-opacity:1"
           d="m 0,0 c 52.115,-26.083 -23.447,-129.787 -73.892,-180.863 -63.111,-63.903 -21.508,-110.665 -21.508,-110.665 0,0 -21.463,50.421 24.037,94.23 44.562,42.905 113.824,110.811 107.951,177.618 -5.873,66.808 -58.228,72.097 -64.692,70 -6.463,-2.098 -7.032,-10.101 -6.514,-13.904 0.868,-6.38 3.652,-8.145 4.017,-11.065 0.708,-5.667 -0.498,-19.432 8.733,-21.11 C -12.638,2.563 -6.805,3.406 0,0" /></g><g
         transform="translate(447.7109,284.8135)"
         id="g4734"
         style="stroke:#ff0000;stroke-opacity:1;fill:#e90000;fill-opacity:1"><path
           inkscape:connector-curvature="0"
           id="path4736"
           style="fill:#e90000;fill-opacity:1;fill-rule:nonzero;stroke:#ff0000;stroke-opacity:1"
           d="M 0,0 C 33.098,31.548 73.313,90 83.739,128.926 95.694,173.556 59.748,196.916 50.98,198.643 64.028,151.2 47.291,106.703 25.509,65.269 12.098,39.759 -1.885,16.722 -20.111,-3.678 c -17.304,-19.367 -23.772,-28.066 -40.918,-45.031 0,0 47.803,36.102 61.029,48.709" /></g><g
         transform="translate(523.7061,632.2578)"
         id="g4738"
         style="stroke:#ff0000;stroke-opacity:1;fill:#e90000;fill-opacity:1"><path
           inkscape:connector-curvature="0"
           id="path4740"
           style="fill:#e90000;fill-opacity:1;fill-rule:nonzero;stroke:#ff0000;stroke-opacity:1"
           d="m 0,0 c -101.598,8.335 -118.946,21.214 -165.757,14.601 -68.833,-9.725 -68.796,-69.581 -67.942,-81.916 1.822,-26.352 5.156,-45.545 5.156,-45.545 0,0 11.569,12.003 11.569,18.044 0,6.042 -5.832,10.463 -5.814,36.704 0.011,15.878 13.713,52.236 54.227,63.8 C -117.392,20.293 -71.72,3.685 0,0" /></g><g
         transform="translate(638.7002,531.7393)"
         id="g4742"
         style="stroke:#ff0000;stroke-opacity:1;fill:#e90000;fill-opacity:1"><path
           inkscape:connector-curvature="0"
           id="path4744"
           style="fill:#e90000;fill-opacity:1;fill-rule:nonzero;stroke:#ff0000;stroke-opacity:1"
           d="m 0,0 c -100.99,13.772 -100.285,45.199 -125.004,63.914 -20.728,15.694 -50.869,15.614 -78.636,-0.12 -26.063,-14.769 -61.252,-54.509 -61.252,-54.509 0,0 7.772,0.14 17.873,2.825 10.077,2.678 11.314,6.239 20.132,16.281 9.308,10.6 22.687,28.659 43.479,35.965 20.791,7.305 47.515,2.289 57.336,-7.291 11.078,-10.807 23.077,-25.358 39.064,-35.726 C -71.02,10.971 -48.023,7.062 0,0" /></g><g
         transform="translate(311.7896,387.1729)"
         id="g4746"
         style="stroke:#ff0000;stroke-opacity:1;fill:#e90000;fill-opacity:1"><path
           inkscape:connector-curvature="0"
           id="path4748"
           style="fill:#e90000;fill-opacity:1;fill-rule:nonzero;stroke:#ff0000;stroke-opacity:1"
           d="m 0,0 c -5.311,-29.361 -35.491,-42.745 -51.249,-50.574 -15.756,-7.827 -47.209,-22.358 -46.334,-25.673 1.136,-4.299 0.31,-5.933 -4.623,-16.789 -5.327,-11.722 -3.968,-23.38 -3.968,-23.38 -5.173,16.548 2.671,36.52 2.671,36.52 -23.753,-17.738 -25.182,-37.906 -25.182,-37.906 3.369,28.928 25.212,46.324 50.424,58.031 25.212,11.706 60.652,23.456 71.891,53.379 C 1.985,15.85 -2.58,32.043 3.96,41.489 0.092,33.078 2.78,15.372 0,0" /></g></g></g></svg>